# xmcd
#
# Track frame offsets: 
#        150
#        10227
#        25727
#        39373
#        53206
#        68160
#        82091
#        96670
#        108385
#        120164
#        132175
#
# Disc length: 1927 seconds
#
# Revision: 0
# Processed by: cddbd v1.5.2PL0 Copyright (c) Steve Scherf et al.
# Submitted via: ExactAudioCopy v0.99pb4
#
DISCID=8a07850b
DTITLE=Boxcar Willie - Best Loved Favorites [CD2]
DYEAR=1988
DGENRE=Classic Country
TTITLE0=This Ol' House
TTITLE1=Goodnight, Irene
TTITLE2=Good Hearted Woman
TTITLE3=Cold, Cold Heart
TTITLE4=Mom and Dad's Waltz
TTITLE5=L.A. Lady
TTITLE6=I'm Thinking Tonight of My Blue Eyes
TTITLE7=Lovesick Blues
TTITLE8=Fraulein
TTITLE9=Don't Pretend
TTITLE10=I'll Fly Away
EXTD=
EXTT0=
EXTT1=
EXTT2=
EXTT3=
EXTT4=
EXTT5=
EXTT6=
EXTT7=
EXTT8=
EXTT9=
EXTT10=
PLAYORDER=
